<svg xmlns="http://www.w3.org/2000/svg" viewBox="0 0 3304.88 698.59"><defs><style>.cls-1,.cls-3,.cls-4{fill:#bd93f9;}.cls-1,.cls-4{stroke:#bd93f9;}.cls-1,.cls-4,.cls-5,.cls-6{stroke-miterlimit:10;}.cls-1{stroke-width:11px;}.cls-2,.cls-5{fill:#50fa7b;}.cls-4{stroke-width:21px;}.cls-5{stroke:#50fa7b;stroke-width:23px;}.cls-6{fill:#f55;stroke:#f55;stroke-width:13px;}</style></defs><g id="Layer_2" data-name="Layer 2"><g id="Layer_2-2" data-name="Layer 2"><path class="cls-1" d="M946.55,281.87v64H703.27a167.89,167.89,0,0,0,17.05,65.36,187.6,187.6,0,0,0,97.56,89.66,171.29,171.29,0,0,0,63.28,12.33h65.39v64H893.11q-55.2,0-103.36-19.33t-83.5-54.32a243.44,243.44,0,0,1-54.49-81.91A260.13,260.13,0,0,1,632.6,322.3q0-71,33.75-129.38t93.52-91.58q59.76-33.23,133.24-33.22h53.44v64H901.2q-47.12,0-84.2,15.47t-61.88,39.2Q730.34,210.5,717.33,236t-14.06,45.88Z"/><path class="cls-1" d="M977.49,132.1v-64h316.76v64H1169.79V577.18h-67.85V132.1Z"/><path class="cls-2" d="M1541.13,189.18l-22.06,22.06-8,8.52q-7.79,8.27-19.3,22.66t-24.83,33.82a384.78,384.78,0,0,0-24.82,41.85,288.58,288.58,0,0,0-19.07,47,163.46,163.46,0,0,0,0,98.21,290.22,290.22,0,0,0,19.07,46.89,384.78,384.78,0,0,0,24.82,41.85q13.32,19.43,24.83,33.82t19.3,22.66l8,8.52,22.06,22.06h-86.34q-8.62-10.08-19.54-24.1t-22.19-31.3q-11.28-17.26-22.06-37.06a348.88,348.88,0,0,1-19.19-41.49,314.25,314.25,0,0,1-13.55-44.61,211.25,211.25,0,0,1,0-92.81,314.25,314.25,0,0,1,13.55-44.61,349.76,349.76,0,0,1,19.19-41.5q10.79-19.77,22.06-37t22.19-31.3q10.9-14,19.54-24.1Z"/><path class="cls-2" d="M1842.13,611.05a95.22,95.22,0,0,1-4.08,28.9,84.42,84.42,0,0,1-10.79,22.54A73.31,73.31,0,0,1,1811.67,679a91,91,0,0,1-18.59,11.16,95.9,95.9,0,0,1-19.67,6.35,93.85,93.85,0,0,1-18.82,2H1642.1V636.23h112.49q12.71,0,18.94-6.47t6.24-18.71V414.14q0-12.22-6.24-18.58t-18.94-6.36H1642.1q-11.5,0-18.22,7.08t-6.72,17.86v84.43q0,12.23,6.48,18.7t18.94,6.48h112v62.36H1642.1a92.12,92.12,0,0,1-18.7-2,96.08,96.08,0,0,1-19.55-6.36,90.91,90.91,0,0,1-18.59-11.15A73.52,73.52,0,0,1,1569.67,550a84.42,84.42,0,0,1-10.79-22.54,95.17,95.17,0,0,1-4.08-28.9V414.14a92.19,92.19,0,0,1,2-18.7,96.08,96.08,0,0,1,6.36-19.55,91.18,91.18,0,0,1,11.15-18.59,73.26,73.26,0,0,1,16.55-15.58,84.51,84.51,0,0,1,22.42-10.8,94.36,94.36,0,0,1,28.78-4.08h112.49a96.88,96.88,0,0,1,38.49,8.4,90.91,90.91,0,0,1,18.59,11.15,73.74,73.74,0,0,1,15.59,16.55,84.87,84.87,0,0,1,10.79,22.43,94,94,0,0,1,4.08,28.77Z"/><path class="cls-2" d="M2126.09,389.2h-140.3q-12.72,0-19.19,6.36t-6.47,18.58v172h-62.36v-172a94,94,0,0,1,4.08-28.77,82.1,82.1,0,0,1,10.91-22.43,75.6,75.6,0,0,1,15.71-16.55,90.85,90.85,0,0,1,18.58-11.15,95.52,95.52,0,0,1,19.67-6.36,93.57,93.57,0,0,1,18.59-2h140.78Z"/><path class="cls-2" d="M2414.62,500.25a96.69,96.69,0,0,1-4.56,27.94A83.62,83.62,0,0,1,2395.31,556a82.27,82.27,0,0,1-26.62,21.46q-16.44,8.64-39.94,8.64H2216.27a96.35,96.35,0,0,1-27.94-4.56,83.44,83.44,0,0,1-27.82-14.75q-12.84-10.18-21.47-26.62t-8.63-39.93a97.49,97.49,0,0,1,4.56-28.06,83.08,83.08,0,0,1,14.75-27.95,82.19,82.19,0,0,1,26.62-21.46q16.42-8.64,39.93-8.64h112.48v59.48H2216.27q-12.72,0-19.67,7.8t-6.95,19.3q0,12.24,8,19.07a28.47,28.47,0,0,0,19.07,6.84h112q12.72,0,19.67-7.68t7-19.18V412.71q0-12.24-7.56-19.43t-19.07-7.2H2191.81V326.84h136.94a96.64,96.64,0,0,1,27.94,4.56,83.66,83.66,0,0,1,27.83,14.75A82.4,82.4,0,0,1,2406,372.77q8.64,16.44,8.64,39.94Z"/><path class="cls-2" d="M2753.74,498.57a95.49,95.49,0,0,1-4.07,28.9,84.13,84.13,0,0,1-10.8,22.54,73.3,73.3,0,0,1-15.59,16.55,90.85,90.85,0,0,1-18.58,11.15,96.28,96.28,0,0,1-19.55,6.36,92.21,92.21,0,0,1-18.71,2H2554V523.75h112.48q12.46,0,18.71-6.48t6.24-18.7V414.63q0-13-6.36-19.19t-18.59-6.24h-112q-12.72,0-19.19,6.36t-6.47,18.58v253h-62.36v-253a94,94,0,0,1,4.08-28.77,82.1,82.1,0,0,1,10.91-22.43,75.84,75.84,0,0,1,15.71-16.55,90.65,90.65,0,0,1,18.59-11.15,95.44,95.44,0,0,1,19.66-6.36,93.57,93.57,0,0,1,18.59-2h112.48a94.31,94.31,0,0,1,28.78,4.08,84.58,84.58,0,0,1,22.43,10.8,73.47,73.47,0,0,1,16.55,15.58,91.64,91.64,0,0,1,11.15,18.59,96,96,0,0,1,6.35,19.55,92.19,92.19,0,0,1,2,18.7Z"/><path class="cls-2" d="M2870.3,586.11H2808V217.24h62.35Zm225,0h-62.36v-172q0-12.22-6.23-18.58T3008,389.2H2895.49V326.84H3008a93,93,0,0,1,18.71,2,96,96,0,0,1,19.54,6.36,90.91,90.91,0,0,1,18.59,11.15,73.74,73.74,0,0,1,15.59,16.55,84.87,84.87,0,0,1,10.79,22.43,94,94,0,0,1,4.08,28.77Z"/><path class="cls-2" d="M3304.88,414.14a210.39,210.39,0,0,1-5.15,46.41,316.87,316.87,0,0,1-13.55,44.61A350.46,350.46,0,0,1,3267,546.65q-10.78,19.8-22.18,37.06T3222.62,615q-10.78,14-19.43,24.1h-86.34l22.07-22.06,7.91-8.52q7.68-8.26,19.19-22.66t24.82-33.82a371.84,371.84,0,0,0,24.71-41.85,294.5,294.5,0,0,0,18.94-47,162.87,162.87,0,0,0,0-98.09,294.5,294.5,0,0,0-18.94-47,371.84,371.84,0,0,0-24.71-41.85q-13.31-19.42-24.82-33.82t-19.19-22.66q-7.68-8.28-7.91-8.52l-22.07-22.06h86.34q8.64,10.06,19.43,24.1t22.19,31.3q11.39,17.26,22.18,37a351.35,351.35,0,0,1,19.19,41.5,316.87,316.87,0,0,1,13.55,44.61A210.5,210.5,0,0,1,3304.88,414.14Z"/><polygon class="cls-3" points="308.19 351.57 307.96 277.1 609.84 274.76 610.07 349.23 308.19 351.57"/><path class="cls-4" d="M600.19,289.89l-50.45.24v15.29c0,134.06-109.11,243.67-243.18,244.32h-1.23A244.39,244.39,0,0,1,131.7,133.39,242.77,242.77,0,0,1,304.16,61h1.25A241.68,241.68,0,0,1,415.66,87.21l10,5.05L462.54,55l-18.15-9.72A294.88,294.88,0,1,0,305.31,600.2h1.49A294.86,294.86,0,0,0,600.19,305.32Z"/><path class="cls-5" d="M497.36,393.53C446.65,500.36,319.09,546.26,211.87,496,104.32,445.65,58,317.61,108.37,210.06s178.42-153.89,286-103.5a214.12,214.12,0,0,1,78.74,62.93l16.09-5.82a230.33,230.33,0,0,0-87.9-71.91C285.55,37.54,147.78,87.41,93.57,203.13s-4.35,253.49,111.37,307.7c115.39,54.06,252.68,4.64,307.22-110.37Z"/><path class="cls-5" d="M308.78,536.32A235,235,0,1,1,492.05,161.54l2.86,3.87-23.06,8.34-1.6-2.06a209.29,209.29,0,0,0-77.43-61.89C287.23,60.34,161.08,106,111.61,211.58S107.8,443.32,213.39,492.79c105.05,49.22,231,4,280.73-100.8l1.53-3.22,21.29,10L515.4,402A235.63,235.63,0,0,1,308.78,536.32Zm-11-462.75c-83.63,2.1-163.1,50.32-200.94,131.08C43.52,318.4,92.71,454.3,206.46,507.59c112.12,52.52,246.28,5.21,300.89-105.42l-8.31-3.9a218.61,218.61,0,1,1-103.18-295,216.18,216.18,0,0,1,78.44,61.93l9.08-3.29A228,228,0,0,0,297.75,73.57Z"/><path class="cls-6" d="M459.26,181c68.42,84.66,55.63,208.78-28.8,277.68C345.78,527.75,221.13,515.13,152,430.45S95.57,221.12,180.25,152a197,197,0,0,1,66.47-35.72c5-1.57,10.06-2.91,15.14-4L263,126.34q-7.62,1.78-15.12,4.26a183.4,183.4,0,0,0-58.8,32.26c-78.7,64.21-90.44,180.06-26.22,258.76s180.06,90.43,258.76,26.21c78.44-64,90.34-179.33,26.8-258Z"/><rect class="cls-6" x="258.6" y="253.32" width="227.83" height="11.67" transform="translate(-79.95 293.87) rotate(-39.21)"/><rect class="cls-5" x="274.99" y="343.57" width="246.17" height="13.51" transform="translate(186.22 -135.79) rotate(25.1)"/><circle class="cls-5" cx="300.59" cy="310.95" r="34.92"/></g></g></svg>